<?xml version="1.0" standalone="no"?><!DOCTYPE svg PUBLIC "-//W3C//DTD SVG 1.1//EN" "http://www.w3.org/Graphics/SVG/1.1/DTD/svg11.dtd"><svg t="1626922862678" class="icon" viewBox="0 0 1024 1024" version="1.1" xmlns="http://www.w3.org/2000/svg" p-id="17238" xmlns:xlink="http://www.w3.org/1999/xlink" width="128" height="128"><defs><style type="text/css">@font-face { font-family: feedback-iconfont; src: url("//at.alicdn.com/t/font_1031158_1uhr8ri0pk5.eot?#iefix") format("embedded-opentype"), url("//at.alicdn.com/t/font_1031158_1uhr8ri0pk5.woff2") format("woff2"), url("//at.alicdn.com/t/font_1031158_1uhr8ri0pk5.woff") format("woff"), url("//at.alicdn.com/t/font_1031158_1uhr8ri0pk5.ttf") format("truetype"), url("//at.alicdn.com/t/font_1031158_1uhr8ri0pk5.svg#iconfont") format("svg"); }
</style></defs><path d="M929.305659 751.020644c-1.551666 3.886283-21.766032 73.853614-70.750281 146.155562-42.706407 62.194765-87.078365 125.17248-157.045695 125.941195-68.415665 1.551666-90.964648-41.211683-169.47326-41.211683s-103.406448 39.660017-167.978536 41.980398c-66.906705 3.103332-118.95158-67.646949-161.714929-129.827478C114.538585 767.377198 46.948577 534.114801 137.856283 378.620772c44.329251-77.739897 125.17248-127.492861 212.307786-129.058763 66.081048-1.551666 128.275812 44.315015 168.704545 44.315015 41.197448 0 116.616963-55.190914 196.691477-47.418347 33.424881 1.551666 127.507097 13.993466 187.367244 101.071831-4.669234 3.103332-111.947729 66.906705-111.179014 195.13981 1.551666 157.045695 136.048378 207.581611 137.61428 208.364562M662.632616 164.049546C698.392115 119.663353 722.492764 59.874383 716.2861 0c-51.247689 2.334617-114.296582 34.165126-151.607747 77.739897-32.656166 38.108351-62.194765 99.520165-53.653483 158.654303 56.756815 3.886283 115.834012-29.538598 151.607746-72.301947" fill="#48A0FE" p-id="17239"></path></svg>